<svg xmlns="http://www.w3.org/2000/svg" width="256" height="256" viewBox="0 0 256 256" version="1.1"><path d="M 130.405 18.142 C 128.507 20.276, 128.508 20.278, 130.750 18.901 C 131.988 18.141, 133 17.177, 133 16.759 C 133 15.554, 132.443 15.850, 130.405 18.142 M 143.031 18.500 C 143.031 19.050, 143.467 20.175, 144 21 C 144.533 21.825, 144.969 22.050, 144.969 21.500 C 144.969 20.950, 144.533 19.825, 144 19 C 143.467 18.175, 143.031 17.950, 143.031 18.500 M 57.235 41.497 C 51.355 44.053, 51.700 45.576, 60.931 57.805 C 63.918 61.762, 66.784 65, 67.300 65 C 68.936 65, 67.571 46.868, 65.663 43.250 C 63.784 39.688, 62.171 39.352, 57.235 41.497 M 195.424 42.476 C 193.882 44.830, 191.611 62.852, 192.711 64 C 193.753 65.087, 208 47.727, 208 45.370 C 208 43.943, 201.071 40, 198.563 40 C 197.729 40, 196.316 41.114, 195.424 42.476 M 36.849 60.670 C 34.811 61.211, 32.721 66.009, 33.168 69.121 C 33.616 72.240, 38.997 75.671, 45.312 76.864 C 55.610 78.809, 57 78.941, 57 77.971 C 57 76.590, 40.714 59.975, 39.499 60.116 C 38.950 60.180, 37.757 60.429, 36.849 60.670 M 216.434 65.057 C 211.104 69.670, 205 76.691, 205 78.208 C 205 78.852, 206.747 78.978, 209.750 78.549 C 225.458 76.306, 232.221 70.564, 227.550 63.435 C 225.215 59.873, 221.858 60.363, 216.434 65.057 M 108.564 83.707 C 108.022 85.132, 108.136 85.247, 109.124 84.267 C 109.808 83.588, 110.115 82.781, 109.807 82.474 C 109.499 82.166, 108.940 82.721, 108.564 83.707 M 143.638 98.500 C 143.322 99.325, 143.499 100, 144.031 100 C 144.564 100, 145 99.325, 145 98.500 C 145 97.675, 144.823 97, 144.607 97 C 144.391 97, 143.955 97.675, 143.638 98.500 M 72.459 102.067 C 72.096 102.653, 72.014 103.348, 72.276 103.610 C 72.538 103.872, 73.019 103.392, 73.345 102.543 C 74.021 100.781, 73.445 100.471, 72.459 102.067 M 142.079 102.583 C 142.127 103.748, 142.364 103.985, 142.683 103.188 C 142.972 102.466, 142.936 101.603, 142.604 101.271 C 142.272 100.939, 142.036 101.529, 142.079 102.583 M 126.100 104.295 C 124.835 106.402, 124.857 106.423, 126.579 104.774 C 127.570 103.824, 128.166 102.832, 127.903 102.569 C 127.640 102.306, 126.829 103.083, 126.100 104.295 M 39.250 104.742 C 42.962 104.934, 49.038 104.934, 52.750 104.742 C 56.462 104.549, 53.425 104.392, 46 104.392 C 38.575 104.392, 35.538 104.549, 39.250 104.742 M 139.564 107.707 C 139.022 109.132, 139.136 109.247, 140.124 108.267 C 140.808 107.588, 141.115 106.781, 140.807 106.474 C 140.499 106.166, 139.940 106.721, 139.564 107.707 M 25.872 108.750 C 24.629 110.336, 24.664 110.371, 26.250 109.128 C 27.212 108.373, 28 107.585, 28 107.378 C 28 106.555, 27.179 107.084, 25.872 108.750 M 120.564 111.707 C 120.022 113.132, 120.136 113.247, 121.124 112.267 C 121.808 111.588, 122.115 110.781, 121.807 110.474 C 121.499 110.166, 120.940 110.721, 120.564 111.707 M 137.564 111.707 C 137.022 113.132, 137.136 113.247, 138.124 112.267 C 138.808 111.588, 139.115 110.781, 138.807 110.474 C 138.499 110.166, 137.940 110.721, 137.564 111.707 M 239.420 133.500 C 239.419 144.500, 239.565 149.136, 239.745 143.803 C 239.924 138.470, 239.925 129.470, 239.746 123.803 C 239.568 118.136, 239.421 122.500, 239.420 133.500 M 133.564 120.707 C 133.022 122.132, 133.136 122.247, 134.124 121.267 C 134.808 120.588, 135.115 119.781, 134.807 119.474 C 134.499 119.166, 133.940 119.721, 133.564 120.707 M 22.389 136.500 C 22.390 143.650, 22.550 146.444, 22.742 142.708 C 22.935 138.973, 22.934 133.123, 22.739 129.708 C 22.545 126.294, 22.387 129.350, 22.389 136.500 M 110.564 125.707 C 110.022 127.132, 110.136 127.247, 111.124 126.267 C 111.808 125.588, 112.115 124.781, 111.807 124.474 C 111.499 124.166, 110.940 124.721, 110.564 125.707 M 133.750 124.662 C 134.438 124.940, 135.563 124.940, 136.250 124.662 C 136.938 124.385, 136.375 124.158, 135 124.158 C 133.625 124.158, 133.063 124.385, 133.750 124.662 M 143.750 126.662 C 144.438 126.940, 145.563 126.940, 146.250 126.662 C 146.938 126.385, 146.375 126.158, 145 126.158 C 143.625 126.158, 143.063 126.385, 143.750 126.662 M 150.980 129.524 C 150.284 130.362, 149.909 131.242, 150.145 131.479 C 150.382 131.715, 151.125 131.030, 151.796 129.955 C 153.248 127.630, 152.764 127.375, 150.980 129.524 M 103.667 135.667 C 102.735 136.599, 102.835 138, 103.833 138 C 104.292 138, 104.667 137.325, 104.667 136.500 C 104.667 134.801, 104.594 134.740, 103.667 135.667 M 144.980 137.524 C 144.284 138.362, 143.909 139.242, 144.145 139.479 C 144.382 139.715, 145.125 139.030, 145.796 137.955 C 147.248 135.630, 146.764 135.375, 144.980 137.524 M 106.813 138.683 C 107.534 138.972, 108.397 138.936, 108.729 138.604 C 109.061 138.272, 108.471 138.036, 107.417 138.079 C 106.252 138.127, 106.015 138.364, 106.813 138.683 M 110.813 139.683 C 111.534 139.972, 112.397 139.936, 112.729 139.604 C 113.061 139.272, 112.471 139.036, 111.417 139.079 C 110.252 139.127, 110.015 139.364, 110.813 139.683 M 118 141.393 C 118 141.609, 118.698 142.054, 119.552 142.382 C 120.442 142.723, 120.843 142.555, 120.493 141.989 C 119.906 141.038, 118 140.583, 118 141.393 M 140.872 142.750 C 139.629 144.336, 139.664 144.371, 141.250 143.128 C 142.213 142.373, 143 141.585, 143 141.378 C 143 140.555, 142.179 141.084, 140.872 142.750 M 135.980 148.524 C 135.284 149.362, 134.909 150.242, 135.145 150.479 C 135.382 150.715, 136.125 150.030, 136.796 148.955 C 138.248 146.630, 137.764 146.375, 135.980 148.524 M 115.459 150.067 C 115.096 150.653, 115.014 151.348, 115.276 151.610 C 115.538 151.872, 116.019 151.392, 116.345 150.543 C 117.021 148.781, 116.445 148.471, 115.459 150.067 M 82.881 155.219 C 83.342 157.996, 83.482 158.136, 83.797 156.135 C 84.002 154.834, 83.757 153.357, 83.253 152.853 C 82.698 152.298, 82.552 153.231, 82.881 155.219 M 131 154.500 C 129.708 155.875, 129.067 156.986, 129.576 156.969 C 130.431 156.940, 134.552 152, 133.721 152 C 133.516 152, 132.292 153.125, 131 154.500 M 113.459 154.067 C 113.096 154.653, 113.014 155.348, 113.276 155.610 C 113.538 155.872, 114.019 155.392, 114.345 154.543 C 115.021 152.781, 114.445 152.471, 113.459 154.067 M 108.500 163 C 107.647 164.650, 107.174 166, 107.449 166 C 107.724 166, 108.647 164.650, 109.500 163 C 110.353 161.350, 110.826 160, 110.551 160 C 110.276 160, 109.353 161.350, 108.500 163 M 124.405 162.250 L 122.500 164.500 124.750 162.595 C 126.864 160.805, 127.455 160, 126.655 160 C 126.465 160, 125.453 161.012, 124.405 162.250 M 46.750 162.747 C 53.487 162.920, 64.513 162.920, 71.250 162.747 C 77.987 162.574, 72.475 162.432, 59 162.432 C 45.525 162.432, 40.013 162.574, 46.750 162.747 M 190.750 162.740 C 194.188 162.936, 199.813 162.936, 203.250 162.740 C 206.688 162.545, 203.875 162.385, 197 162.385 C 190.125 162.385, 187.313 162.545, 190.750 162.740 M 119.510 167.990 C 117.935 169.634, 116.838 171.139, 117.073 171.334 C 117.308 171.529, 118.782 170.184, 120.348 168.344 C 123.886 164.191, 123.362 163.969, 119.510 167.990 M 109.750 173.706 C 110.987 173.944, 113.013 173.944, 114.250 173.706 C 115.487 173.467, 114.475 173.272, 112 173.272 C 109.525 173.272, 108.513 173.467, 109.750 173.706 M 156.405 192.250 L 154.500 194.500 156.750 192.595 C 158.864 190.805, 159.455 190, 158.655 190 C 158.465 190, 157.453 191.012, 156.405 192.250 M 49.801 194.930 C 42.951 197.120, 35.050 201.924, 34.883 204 C 34.638 207.061, 35.207 208.560, 37.506 210.909 C 39.773 213.226, 39.963 213.254, 42.426 211.641 C 44.956 209.983, 55.252 198.141, 57.111 194.750 C 58.332 192.522, 57.246 192.549, 49.801 194.930 M 204 193.913 C 204 194.416, 206.677 198.438, 209.950 202.851 C 218.133 213.889, 220.777 215.033, 224.303 209.064 C 226.821 204.802, 226.425 203.321, 221.895 200.039 C 215.566 195.454, 204 191.495, 204 193.913 M 192.331 207.177 C 192.671 213.902, 193.309 216.826, 195.168 220.177 C 198.256 225.743, 200.098 225.641, 208.824 219.417 C 209.789 218.728, 205.317 212.599, 199.033 206 L 191.892 198.500 192.331 207.177 M 66.864 202.874 C 66.114 203.891, 62.656 208.230, 59.181 212.515 C 53.085 220.030, 52.926 220.369, 54.681 222.090 C 55.681 223.071, 57.718 224.171, 59.207 224.535 C 62.766 225.403, 66.079 221.913, 68.339 214.913 C 71.149 206.212, 70.188 198.365, 66.864 202.874 M 144.100 206.295 C 142.835 208.402, 142.857 208.423, 144.579 206.774 C 145.570 205.824, 146.166 204.832, 145.903 204.569 C 145.640 204.306, 144.829 205.083, 144.100 206.295" stroke="none" fill="#120e1a" fill-rule="evenodd"/><path d="M 135 15.211 C 135 15.710, 134.550 15.840, 134 15.500 C 133.450 15.160, 133 15.584, 133 16.441 C 133 17.915, 131.743 18.488, 129.500 18.035 C 128.950 17.924, 128.831 18.164, 129.234 18.568 C 129.638 18.972, 129.188 19.943, 128.234 20.725 C 127.281 21.508, 127.096 21.843, 127.824 21.470 C 128.911 20.912, 128.920 21.156, 127.874 22.831 C 127.173 23.953, 126.240 24.648, 125.800 24.376 C 125.360 24.104, 125 24.809, 125 25.941 C 125 27.073, 124.550 28, 124 28 C 123.450 28, 123 28.702, 123 29.559 C 123 30.416, 122.550 30.840, 122 30.500 C 121.450 30.160, 121 30.809, 121 31.941 C 121 33.073, 120.550 34, 120 34 C 119.450 34, 119 34.702, 119 35.559 C 119 36.416, 118.550 36.840, 118 36.500 C 117.450 36.160, 116.944 36.359, 116.875 36.941 C 116.500 40.115, 114.904 43.059, 113.895 42.435 C 113.403 42.131, 112.944 42.359, 112.875 42.941 C 112.806 43.523, 112.694 44.431, 112.625 44.957 C 112.556 45.483, 111.600 46.642, 110.500 47.531 C 109.400 48.421, 109.132 48.820, 109.905 48.420 C 110.828 47.941, 111.065 48.086, 110.595 48.845 C 110.203 49.480, 109.346 50.004, 108.691 50.008 C 108.036 50.012, 106.980 51.138, 106.344 52.509 C 105.591 54.131, 105.558 54.773, 106.248 54.347 C 106.872 53.961, 107.015 54.167, 106.595 54.845 C 106.203 55.480, 105.346 56.004, 104.691 56.008 C 103.389 56.016, 101.009 60.474, 100.985 62.949 C 100.971 64.316, 100.854 64.322, 100 63 C 99.216 61.787, 99.028 61.931, 99.015 63.750 C 99.007 64.987, 98.550 66, 98 66 C 97.450 66, 96.993 67.013, 96.985 68.250 C 96.972 70.069, 96.784 70.213, 96 69 C 95.325 67.956, 94.988 67.880, 94.890 68.750 C 94.516 72.083, 92.938 75.080, 91.895 74.435 C 91.403 74.131, 90.944 74.359, 90.875 74.941 C 90.806 75.523, 90.694 76.431, 90.625 76.957 C 90.556 77.483, 89.600 78.642, 88.500 79.531 C 87.400 80.421, 87.132 80.820, 87.905 80.420 C 88.828 79.941, 89.065 80.086, 88.595 80.845 C 88.203 81.480, 87.346 82.004, 86.691 82.008 C 85.389 82.016, 83.009 86.474, 82.985 88.949 C 82.971 90.316, 82.854 90.322, 82 89 C 81.138 87.667, 81.016 87.667, 80.897 89 C 80.823 89.825, 80.816 90.837, 80.882 91.250 C 80.947 91.662, 80.550 92, 80 92 C 79.450 92, 79 92.702, 79 93.559 C 79 94.416, 78.640 94.896, 78.200 94.624 C 77.760 94.352, 76.827 95.047, 76.126 96.169 C 75.080 97.844, 75.089 98.088, 76.176 97.530 C 76.904 97.157, 76.626 97.560, 75.559 98.426 C 74.491 99.292, 73.512 100.717, 73.384 101.592 C 73.074 103.704, 72.004 104.717, 71.985 102.917 C 71.972 101.731, 71.828 101.723, 71.102 102.869 C 70.422 103.943, 66.038 104.266, 50.720 104.369 C 39.987 104.441, 31.430 104.868, 31.703 105.317 C 31.977 105.766, 31.593 106.050, 30.850 105.948 C 28.202 105.585, 27.004 106.018, 27.250 107.250 C 27.388 107.938, 26.904 108.376, 26.176 108.225 C 25.447 108.074, 25.136 108.412, 25.485 108.975 C 25.833 109.539, 25.615 110, 25 110 C 24.385 110, 24.160 110.450, 24.500 111 C 24.840 111.550, 24.615 112, 24 112 C 23.385 112, 23.141 112.419, 23.457 112.931 C 23.774 113.443, 23.610 114.123, 23.094 114.442 C 22.532 114.789, 22.386 121.835, 22.730 132.011 C 23.116 143.419, 22.965 149, 22.270 149 C 19.490 149, 27.055 161.204, 30.096 161.625 C 30.593 161.694, 31.337 161.835, 31.750 161.938 C 32.163 162.041, 43.740 162.070, 57.478 162.002 C 75.006 161.916, 82.667 161.538, 83.163 160.736 C 84.162 159.120, 83.013 153.710, 81.392 152.401 C 80.643 151.797, 80.324 151.009, 80.682 150.651 C 81.280 150.053, 79.412 149.679, 78.679 150.250 C 78.502 150.387, 77.555 149.698, 76.574 148.717 C 74.465 146.608, 73.827 140, 75.733 140 C 76.430 140, 77 139.100, 77 138 C 77 136.900, 77.450 136, 78 136 C 78.550 136, 79 135.523, 79 134.941 C 79 134.359, 78.517 134.181, 77.926 134.546 C 77.333 134.912, 77.423 134.295, 78.126 133.169 C 78.827 132.047, 79.709 131.320, 80.086 131.553 C 80.684 131.923, 81.828 129.132, 81.823 127.317 C 81.822 126.967, 82.536 126.279, 83.410 125.790 C 84.285 125.301, 85 123.948, 85 122.784 C 85 121.619, 85.279 120.945, 85.619 121.286 C 86.654 122.320, 89.234 119.052, 88.629 117.474 C 88.317 116.663, 88.611 115.996, 89.281 115.992 C 89.952 115.988, 91.020 114.862, 91.656 113.491 C 92.532 111.604, 92.532 111.137, 91.656 111.573 C 91.020 111.889, 91.281 111.508, 92.234 110.725 C 93.188 109.943, 93.676 109.009, 93.318 108.651 C 92.960 108.293, 93.192 108, 93.833 108 C 94.475 108, 95.007 106.987, 95.015 105.750 C 95.026 104.135, 95.269 103.877, 95.877 104.835 C 96.512 105.838, 96.908 105.589, 97.469 103.835 C 97.880 102.551, 98.168 101.162, 98.108 100.750 C 98.049 100.338, 98.675 100, 99.500 100 C 100.325 100, 101 99.523, 101 98.941 C 101 98.359, 100.503 98.189, 99.896 98.564 C 99.289 98.939, 99.566 98.066, 100.511 96.623 C 101.457 95.180, 102.655 94, 103.174 94 C 103.693 94, 103.840 93.550, 103.500 93 C 103.160 92.450, 103.359 92, 103.941 92 C 104.523 92, 105.007 90.987, 105.015 89.750 C 105.028 87.931, 105.216 87.787, 106 89 C 106.862 90.333, 106.984 90.333, 107.103 89 C 107.177 88.175, 107.184 87.162, 107.118 86.750 C 107.053 86.338, 107.477 86, 108.059 86 C 108.641 86, 108.896 85.641, 108.625 85.202 C 108.354 84.763, 108.545 83.751, 109.051 82.952 C 109.847 81.694, 109.980 81.700, 110.048 83 C 110.091 83.825, 110.619 83.375, 111.220 82 C 111.821 80.625, 112.242 79.162, 112.156 78.750 C 112.070 78.338, 112.675 78, 113.500 78 C 114.325 78, 115 77.523, 115 76.941 C 115 76.359, 114.517 76.181, 113.926 76.546 C 113.333 76.912, 113.423 76.295, 114.126 75.169 C 114.827 74.047, 115.760 73.352, 116.200 73.624 C 116.640 73.896, 117 73.191, 117 72.059 C 117 70.927, 117.477 70, 118.059 70 C 118.641 70, 118.840 69.550, 118.500 69 C 118.160 68.450, 118.584 68, 119.441 68 C 120.442 68, 121 67.095, 121 65.469 C 121 64.076, 121.672 62.679, 122.494 62.364 C 123.316 62.048, 123.740 61.388, 123.435 60.895 C 123.131 60.403, 123.359 60, 123.941 60 C 124.523 60, 125.007 58.987, 125.015 57.750 C 125.028 55.931, 125.216 55.787, 126 57 C 126.765 58.183, 126.973 57.960, 126.985 55.939 C 126.993 54.530, 127.873 52.440, 128.940 51.295 C 130.007 50.150, 130.607 48.940, 130.273 48.606 C 129.940 48.273, 130.417 48, 131.333 48 C 132.408 48, 133 47.179, 133 45.689 C 133 44.417, 133.873 42.440, 134.940 41.295 C 136.007 40.150, 136.607 38.940, 136.273 38.606 C 135.940 38.273, 136.304 37.996, 137.083 37.992 C 137.863 37.988, 139.020 36.862, 139.656 35.491 C 140.532 33.604, 140.532 33.137, 139.656 33.573 C 139.020 33.889, 139.281 33.508, 140.234 32.725 C 141.188 31.943, 141.676 31.009, 141.318 30.651 C 140.960 30.293, 141.218 30, 141.892 30 C 142.566 30, 142.840 29.550, 142.500 29 C 142.160 28.450, 142.696 27.993, 143.691 27.985 C 145.225 27.972, 145.272 27.822, 144 27 C 143.088 26.411, 142.969 26.025, 143.697 26.015 C 144.450 26.006, 144.835 24.527, 144.736 22.033 C 144.644 19.729, 144.253 18.576, 143.804 19.283 C 143.307 20.065, 143.025 19.697, 143.015 18.250 C 143.006 16.885, 142.387 16, 141.441 16 C 140.584 16, 140.142 15.580, 140.459 15.066 C 140.776 14.553, 139.678 14.171, 138.018 14.219 C 136.358 14.266, 135 14.712, 135 15.211 M 56.558 40.907 C 56.249 41.405, 56.898 41.578, 57.999 41.290 C 60.334 40.679, 60.629 40, 58.559 40 C 57.766 40, 56.866 40.408, 56.558 40.907 M 195 41.059 C 195 41.641, 195.450 41.840, 196 41.500 C 196.550 41.160, 197 40.684, 197 40.441 C 197 40.198, 196.550 40, 196 40 C 195.450 40, 195 40.477, 195 41.059 M 201 40.393 C 201 40.609, 201.698 41.054, 202.552 41.382 C 203.442 41.723, 203.843 41.555, 203.493 40.989 C 202.906 40.038, 201 39.583, 201 40.393 M 53 43.059 C 53 43.641, 53.450 43.840, 54 43.500 C 54.550 43.160, 55 42.684, 55 42.441 C 55 42.198, 54.550 42, 54 42 C 53.450 42, 53 42.477, 53 43.059 M 65.638 43.500 C 65.955 44.325, 66.391 45, 66.607 45 C 66.823 45, 67 44.325, 67 43.500 C 67 42.675, 66.564 42, 66.031 42 C 65.499 42, 65.322 42.675, 65.638 43.500 M 193.374 44.467 C 193.065 45.274, 193.004 46.511, 193.240 47.217 C 193.476 47.923, 193.906 47.263, 194.196 45.750 C 194.762 42.797, 194.295 42.068, 193.374 44.467 M 53 48.500 C 53 49.325, 53.436 50, 53.969 50 C 54.501 50, 54.678 49.325, 54.362 48.500 C 54.045 47.675, 53.609 47, 53.393 47 C 53.177 47, 53 47.675, 53 48.500 M 68.336 57 C 68.336 61.125, 68.513 62.813, 68.728 60.750 C 68.944 58.688, 68.944 55.313, 68.728 53.250 C 68.513 51.188, 68.336 52.875, 68.336 57 M 192.252 57.500 C 192.263 59.700, 192.468 60.482, 192.707 59.238 C 192.946 57.994, 192.937 56.194, 192.687 55.238 C 192.437 54.282, 192.241 55.300, 192.252 57.500 M 200.171 56.318 C 197.087 59.601, 197.469 60.622, 200.606 57.485 C 202.039 56.052, 203.016 54.683, 202.777 54.443 C 202.537 54.204, 201.364 55.048, 200.171 56.318 M 59 57 C 59 57.550, 59.477 58, 60.059 58 C 60.641 58, 60.840 57.550, 60.500 57 C 60.160 56.450, 59.684 56, 59.441 56 C 59.198 56, 59 56.450, 59 57 M 35.813 60.683 C 36.534 60.972, 37.397 60.936, 37.729 60.604 C 38.061 60.272, 37.471 60.036, 36.417 60.079 C 35.252 60.127, 35.015 60.364, 35.813 60.683 M 40.813 60.683 C 41.534 60.972, 42.397 60.936, 42.729 60.604 C 43.061 60.272, 42.471 60.036, 41.417 60.079 C 40.252 60.127, 40.015 60.364, 40.813 60.683 M 223.239 60.715 C 224.746 60.944, 226.658 62.101, 227.489 63.288 C 228.320 64.474, 228.986 65.007, 228.968 64.473 C 228.892 62.157, 226.119 60.008, 223.390 60.150 L 220.500 60.300 223.239 60.715 M 33 63.500 C 33 64.325, 33.177 65, 33.393 65 C 33.609 65, 34.045 64.325, 34.362 63.500 C 34.678 62.675, 34.501 62, 33.969 62 C 33.436 62, 33 62.675, 33 63.500 M 46 65.500 C 49.766 69.386, 51.379 70.245, 48.405 66.781 C 44.959 62.767, 44.152 62, 43.375 62 C 42.953 62, 44.134 63.575, 46 65.500 M 214.993 65.006 C 213.720 66.110, 212.900 67.233, 213.169 67.502 C 213.438 67.772, 214.714 66.869, 216.004 65.496 C 218.819 62.500, 218.218 62.209, 214.993 65.006 M 208.149 71.604 C 207.406 72.444, 206.996 73.330, 207.239 73.572 C 207.481 73.814, 208.496 73.110, 209.494 72.006 C 210.493 70.903, 210.903 70.017, 210.405 70.038 C 209.907 70.059, 208.892 70.764, 208.149 71.604 M 37.733 75.124 C 38.412 75.808, 39.219 76.115, 39.526 75.807 C 39.834 75.499, 39.279 74.940, 38.293 74.564 C 36.868 74.022, 36.753 74.136, 37.733 75.124 M 54 74.378 C 54 74.585, 54.788 75.373, 55.750 76.128 C 57.336 77.371, 57.371 77.336, 56.128 75.750 C 54.821 74.084, 54 73.555, 54 74.378 M 45.813 77.683 C 46.534 77.972, 47.397 77.936, 47.729 77.604 C 48.061 77.272, 47.471 77.036, 46.417 77.079 C 45.252 77.127, 45.015 77.364, 45.813 77.683 M 216.813 77.683 C 217.534 77.972, 218.397 77.936, 218.729 77.604 C 219.061 77.272, 218.471 77.036, 217.417 77.079 C 216.252 77.127, 216.015 77.364, 216.813 77.683 M 204.818 79.218 C 205.351 79.751, 206.623 80.011, 207.644 79.794 C 209.019 79.503, 208.767 79.251, 206.674 78.825 C 204.849 78.452, 204.192 78.592, 204.818 79.218 M 127.766 103.250 C 114.740 120.800, 105.197 134.375, 104.833 135.870 C 104.603 136.812, 106.913 137.898, 112.269 139.368 C 116.542 140.541, 120.028 141.950, 120.014 142.500 C 120.001 143.050, 116.617 149.695, 112.495 157.267 C 108.373 164.839, 105 171.476, 105 172.017 C 105 172.558, 107.362 172.988, 110.250 172.973 L 115.500 172.946 122 165.291 C 137.689 146.814, 146.406 136.211, 149.081 132.352 L 151.956 128.204 142.478 126.418 C 136.799 125.349, 133 124.155, 133 123.440 C 133 122.783, 135.925 115.835, 139.500 108 C 143.075 100.165, 146 93.359, 146 92.877 C 146 92.395, 143.776 92, 141.058 92 L 136.116 92 127.766 103.250 M 172.973 105.980 C 174.332 107.005, 175.794 107.627, 176.222 107.363 C 176.650 107.098, 177 107.584, 177 108.441 C 177 109.298, 177.792 110, 178.761 110 C 179.730 110, 181.615 111.324, 182.951 112.941 C 184.288 114.559, 185.745 115.657, 186.191 115.382 C 186.636 115.107, 187 116.034, 187 117.441 C 187 118.848, 186.523 120, 185.941 120 C 185.359 120, 185.160 120.450, 185.500 121 C 185.840 121.550, 185.416 122, 184.559 122 C 183.667 122, 183 122.855, 183 124 C 183 125.100, 182.550 126, 182 126 C 181.450 126, 181 126.717, 181 127.594 C 181 128.470, 180.100 129.423, 179 129.710 C 177.900 129.998, 177 130.981, 177 131.896 C 177 132.810, 176.124 134.190, 175.054 134.961 C 173.983 135.733, 173.335 136.732, 173.613 137.182 C 173.891 137.632, 173.416 138, 172.559 138 C 171.667 138, 171 138.855, 171 140 C 171 141.100, 170.602 142, 170.117 142 C 169.631 142, 168.998 142.900, 168.710 144 C 168.423 145.100, 167.554 146, 166.780 146 C 166.006 146, 164.741 147.612, 163.968 149.582 C 163.195 151.552, 161.761 153.593, 160.781 154.117 C 159.802 154.641, 159 155.730, 159 156.535 C 159 157.341, 158.550 158, 158 158 C 157.450 158, 157 158.717, 157 159.594 C 157 160.470, 156.171 161.404, 155.157 161.669 C 154.143 161.934, 152.712 163.686, 151.976 165.561 C 151.240 167.437, 150.422 168.755, 150.158 168.491 C 149.396 167.730, 145.002 174.701, 144.985 176.697 C 144.972 178.227, 144.823 178.273, 144 177 C 143.354 176, 143.026 175.917, 143.015 176.750 C 142.988 178.950, 142.731 179.476, 141.099 180.669 C 140.220 181.313, 139.500 182.325, 139.500 182.919 C 139.500 183.514, 139.168 183.887, 138.762 183.750 C 137.669 183.380, 133.002 190.606, 132.985 192.697 C 132.972 194.227, 132.823 194.273, 132 193 C 131.125 191.646, 130.795 192.202, 131.066 194.576 C 131.102 194.892, 130.210 195.951, 129.084 196.927 C 127.958 197.904, 127.328 198.995, 127.685 199.352 C 128.042 199.708, 127.667 200, 126.853 200 C 126.039 200, 124.763 201.555, 124.018 203.455 C 123.272 205.355, 122.288 206.678, 121.831 206.396 C 121.374 206.113, 121 206.809, 121 207.941 C 121 209.073, 120.550 210, 120 210 C 119.450 210, 119 210.717, 119 211.594 C 119 212.470, 118.100 213.423, 117 213.710 C 115.660 214.061, 115 215.074, 115 216.783 C 115 218.186, 114.707 219.040, 114.348 218.682 C 113.355 217.688, 110.990 222.884, 111.079 225.864 C 111.122 227.314, 111.406 227.874, 111.710 227.108 C 112.077 226.182, 112.682 226.716, 113.518 228.704 C 114.623 231.334, 115.268 231.692, 118.887 231.692 C 121.149 231.692, 123 231.312, 123 230.846 C 123 230.381, 123.563 230.113, 124.250 230.250 C 124.938 230.388, 125.388 229.938, 125.250 229.250 C 125.113 228.563, 125.532 228.113, 126.183 228.250 C 126.834 228.388, 127.984 227.262, 128.738 225.750 C 129.492 224.238, 130.546 223, 131.079 223 C 131.613 223, 132.477 221.875, 133 220.500 C 133.523 219.125, 134.444 218, 135.047 218 C 136.620 218, 139 215.398, 139 213.678 C 139 212.873, 139.641 211.968, 140.424 211.667 C 141.208 211.367, 142.645 209.443, 143.618 207.392 C 144.591 205.341, 145.562 204.185, 145.774 204.823 C 146.233 206.198, 148.759 204.021, 149.214 201.857 C 149.371 201.111, 150.551 199.553, 151.836 198.394 C 153.120 197.236, 154.695 195.256, 155.336 193.993 C 155.976 192.730, 157.370 191.202, 158.433 190.598 C 161.312 188.963, 167 183.229, 167 181.962 C 167 180.561, 168.984 178.583, 171.250 177.725 C 172.213 177.361, 173 176.602, 173 176.039 C 173 175.476, 175.991 172.068, 179.647 168.465 L 186.294 161.916 209.309 162.208 C 227.100 162.434, 232.420 162.215, 232.747 161.244 C 232.980 160.553, 233.546 160.219, 234.005 160.503 C 234.463 160.786, 235.554 160.303, 236.429 159.429 C 237.303 158.554, 237.786 157.463, 237.503 157.005 C 237.219 156.546, 237.458 156.014, 238.034 155.822 C 238.719 155.594, 239.074 148.224, 239.063 134.487 C 239.053 122.944, 238.978 113.162, 238.897 112.750 C 238.816 112.338, 238.694 111.576, 238.625 111.057 C 238.406 109.408, 234.152 106.001, 232.292 105.985 C 230.771 105.972, 230.727 105.824, 232 105.010 C 232.975 104.385, 222.484 104.061, 202.001 104.083 C 171.050 104.116, 170.546 104.149, 172.973 105.980 M 240.415 134 C 240.415 144.175, 240.564 148.338, 240.745 143.250 C 240.927 138.162, 240.927 129.837, 240.745 124.750 C 240.564 119.662, 240.415 123.825, 240.415 134 M 77.750 163.662 C 78.438 163.940, 79.563 163.940, 80.250 163.662 C 80.938 163.385, 80.375 163.158, 79 163.158 C 77.625 163.158, 77.063 163.385, 77.750 163.662 M 54 193 C 53.175 193.533, 52.950 193.969, 53.500 193.969 C 54.050 193.969, 55.175 193.533, 56 193 C 56.825 192.467, 57.050 192.031, 56.500 192.031 C 55.950 192.031, 54.825 192.467, 54 193 M 203 192.750 C 203 193.162, 204.307 193.500, 205.905 193.500 C 207.502 193.500, 208.600 193.162, 208.345 192.750 C 208.091 192.338, 206.784 192, 205.441 192 C 204.098 192, 203 192.338, 203 192.750 M 47.558 194.907 C 47.249 195.405, 47.898 195.578, 48.999 195.290 C 51.334 194.679, 51.629 194, 49.559 194 C 48.766 194, 47.866 194.408, 47.558 194.907 M 42.507 196.989 C 42.157 197.555, 42.558 197.723, 43.448 197.382 C 45.180 196.717, 45.497 196, 44.059 196 C 43.541 196, 42.843 196.445, 42.507 196.989 M 39 199.059 C 39 199.641, 39.450 199.840, 40 199.500 C 40.550 199.160, 41 198.684, 41 198.441 C 41 198.198, 40.550 198, 40 198 C 39.450 198, 39 198.477, 39 199.059 M 191.131 205 C 191.076 208.575, 191.390 212.066, 191.830 212.759 C 192.269 213.451, 192.461 211.201, 192.257 207.759 C 191.717 198.686, 191.247 197.534, 191.131 205 M 67 201 C 67 201.550, 67.563 201.887, 68.250 201.750 C 69.036 201.593, 69.722 203.169, 70.100 206 L 70.700 210.500 70.850 206.450 C 70.989 202.698, 69.713 200, 67.800 200 C 67.360 200, 67 200.450, 67 201 M 50.872 202.750 C 49.629 204.336, 49.664 204.371, 51.250 203.128 C 52.916 201.821, 53.445 201, 52.622 201 C 52.415 201, 51.627 201.787, 50.872 202.750 M 208.564 202.293 C 208.940 203.279, 209.499 203.834, 209.807 203.526 C 210.115 203.219, 209.808 202.412, 209.124 201.733 C 208.136 200.753, 208.022 200.868, 208.564 202.293 M 44.506 209.994 C 43.507 211.097, 43.017 212, 43.416 212 C 44.471 212, 47.321 208.988, 46.780 208.446 C 46.527 208.194, 45.504 208.890, 44.506 209.994 M 202 208.711 C 202 209.285, 202.787 210.373, 203.750 211.128 C 205.369 212.397, 205.390 212.350, 204.033 210.500 C 203.226 209.400, 202.439 208.313, 202.283 208.083 C 202.127 207.854, 202 208.137, 202 208.711 M 35 209.378 C 35 209.585, 35.788 210.373, 36.750 211.128 C 38.336 212.371, 38.371 212.336, 37.128 210.750 C 35.821 209.084, 35 208.555, 35 209.378 M 58.584 211.641 C 58.057 213.014, 58.204 213.076, 59.477 212.019 C 61.212 210.579, 61.393 210, 60.107 210 C 59.616 210, 58.931 210.739, 58.584 211.641 M 40 213 C 39.099 213.582, 38.975 213.975, 39.691 213.985 C 40.346 213.993, 41.160 213.550, 41.500 213 C 42.267 211.758, 41.921 211.758, 40 213 M 219.014 213.414 C 219.662 214.062, 220.338 214.062, 220.986 213.414 C 221.633 212.767, 221.295 212.429, 220 212.429 C 218.705 212.429, 218.367 212.767, 219.014 213.414 M 67.564 216.707 C 67.022 218.132, 67.136 218.247, 68.124 217.267 C 68.808 216.588, 69.115 215.781, 68.807 215.474 C 68.499 215.166, 67.940 215.721, 67.564 216.707 M 207.564 216.293 C 207.940 217.279, 208.499 217.834, 208.807 217.526 C 209.115 217.219, 208.808 216.412, 208.124 215.733 C 207.136 214.753, 207.022 214.868, 207.564 216.293 M 193 218.500 C 193 219.325, 193.436 220, 193.969 220 C 194.501 220, 194.678 219.325, 194.362 218.500 C 194.045 217.675, 193.609 217, 193.393 217 C 193.177 217, 193 217.675, 193 218.500 M 53 221.378 C 53 221.585, 53.788 222.373, 54.750 223.128 C 56.336 224.371, 56.371 224.336, 55.128 222.750 C 53.821 221.084, 53 220.555, 53 221.378 M 203.500 223 C 203.160 223.550, 203.359 224, 203.941 224 C 204.523 224, 205 223.550, 205 223 C 205 222.450, 204.802 222, 204.559 222 C 204.316 222, 203.840 222.450, 203.500 223 M 58.655 225.250 C 58.909 225.662, 59.991 226, 61.059 226 C 62.127 226, 63 225.662, 63 225.250 C 63 224.838, 61.918 224.500, 60.595 224.500 C 59.273 224.500, 58.400 224.838, 58.655 225.250" stroke="none" fill="#b08f93" fill-rule="evenodd"/></svg>